<?xml version="1.0" encoding="utf-8"?>
<!-- Generator: Adobe Illustrator 19.2.0, SVG Export Plug-In . SVG Version: 6.00 Build 0)  -->
<svg version="1.1" id="Layer_1" xmlns="http://www.w3.org/2000/svg" xmlns:xlink="http://www.w3.org/1999/xlink" x="0px" y="0px"
	 viewBox="183 130 466.9 200.6" style="enable-background:new 0 0 841.9 497.6;" xml:space="preserve">
<style type="text/css">
	.st0{fill:#00728D;}
	.st1{fill:#32B9DC;}
	.st2{fill:#0286AA;}
</style>
<g>
	<g>
		<g>
			<path class="st0" d="M437.9,234.7c-1.6-1.5-3.5-2.8-5.5-3.8c-1.9-1-3.9-1.9-5.9-2.7c-2-0.8-3.9-1.6-5.8-2.3
				c-1.7-0.7-3.3-1.5-4.6-2.5c-1.3-0.9-2.3-1.9-3-3.2c-0.7-1.1-1.1-2.6-1.1-4.4v-1.3c0-1.2,0.2-2.3,0.7-3.4c0.5-1,1.1-2,1.9-2.7
				c0.8-0.8,1.7-1.4,2.8-1.9c1-0.4,2.2-0.7,3.4-0.7h3.7c1.2,0,2.3,0.2,3.4,0.7c1.1,0.5,2,1.1,2.8,1.9c0.8,0.8,1.4,1.7,1.9,2.8
				c0.5,1,0.7,2.2,0.7,3.4v5l9.9-1.6v-3.4c0-2.5-0.5-4.9-1.4-7.1c-0.9-2.2-2.3-4.1-3.9-5.8c-1.7-1.7-3.6-3-5.8-3.9
				c-2.2-0.9-4.6-1.4-7.1-1.4h-4.3c-2.5,0-4.9,0.5-7.1,1.4c-2.2,0.9-4.2,2.3-5.8,3.9c-1.7,1.7-3,3.6-3.9,5.8c-1,2.2-1.4,4.6-1.4,7.1
				v1.3c0,3.1,0.5,5.8,1.5,8c1,2.2,2.4,4.1,4,5.6c1.6,1.5,3.5,2.7,5.5,3.7c1.9,0.9,3.9,1.8,5.9,2.5c2,0.7,3.9,1.5,5.7,2.2
				c1.7,0.7,3.3,1.5,4.6,2.5c1.3,0.9,2.3,2,3,3.3c0.7,1.2,1.1,2.8,1.1,4.7v2c0,1.2-0.2,2.3-0.7,3.3c-0.5,1.1-1.2,2-2,2.8
				c-0.8,0.8-1.8,1.4-2.9,1.9c-1.1,0.5-2.2,0.7-3.5,0.7h-4.2c-1.2,0-2.4-0.2-3.5-0.7c-1.1-0.5-2.1-1.1-2.9-1.9
				c-0.8-0.8-1.5-1.7-2-2.8c-0.5-1-0.7-2.1-0.7-3.3v-5.9l-9.9,1.6v4.3c0,2.5,0.5,4.9,1.5,7.2c1,2.2,2.4,4.1,4.1,5.8
				c1.7,1.6,3.7,3,5.9,3.9c2.3,0.9,4.7,1.4,7.2,1.4h4.8c2.5,0,4.9-0.5,7.2-1.4c2.2-0.9,4.2-2.3,5.9-3.9c1.7-1.6,3.1-3.6,4.1-5.8
				c1-2.2,1.5-4.6,1.5-7.2v-2c0-3.1-0.5-5.8-1.5-8C441,238.1,439.6,236.2,437.9,234.7z"/>
			<rect x="471.4" y="197.3" class="st0" width="9.9" height="70.4"/>
			<polygon class="st0" points="520.5,197.3 510.6,197.3 510.6,267.7 545.9,267.7 545.9,258.1 520.5,258.1 			"/>
			<path class="st0" d="M609.4,207.5c-0.9-2.2-2.3-4.1-3.9-5.8c-1.6-1.7-3.6-3-5.8-3.9c-2.2-0.9-4.6-1.4-7.1-1.4h-4.7
				c-2.5,0-4.9,0.5-7.1,1.4c-2.2,0.9-4.2,2.3-5.8,3.9c-1.7,1.7-3,3.6-3.9,5.8c-1,2.2-1.4,4.6-1.4,7.1v35.7c0,2.5,0.5,4.9,1.4,7.1
				c0.9,2.2,2.3,4.1,3.9,5.8c1.7,1.7,3.6,3,5.8,3.9c1.8,0.8,3.8,1.3,5.9,1.4l6.1,13.7h10.2l-6.2-14.1c1.4-0.3,2.7-0.8,4-1.4
				c2-1,3.8-2.3,5.4-4c1.5-1.6,2.7-3.5,3.6-5.7c0.9-2.1,1.3-4.4,1.3-6.8v-35.7C610.9,212.1,610.4,209.7,609.4,207.5z M592.3,259.1
				h-4.2c-1.2,0-2.3-0.2-3.4-0.7c-1.1-0.5-2-1.1-2.8-1.9c-0.8-0.8-1.4-1.7-1.9-2.8c-0.4-1-0.7-2.2-0.7-3.4v-35.7
				c0-1.2,0.2-2.3,0.7-3.4c0.5-1,1.1-2,1.9-2.7c0.8-0.8,1.7-1.4,2.8-1.9c1-0.4,2.2-0.7,3.4-0.7h4.2c1.2,0,2.3,0.2,3.4,0.7
				c1.1,0.5,2,1.1,2.8,1.9c0.8,0.8,1.4,1.7,1.9,2.8c0.5,1,0.7,2.2,0.7,3.4v35.7c0,1.2-0.2,2.3-0.7,3.4c-0.5,1.1-1.1,2-1.9,2.8
				c-0.8,0.8-1.7,1.4-2.7,1.9C594.7,258.9,593.6,259.1,592.3,259.1z"/>
		</g>
	</g>
	<path class="st1" d="M355.3,185.3c4.4,5.1-2.5,20.4-23.8,40.1c-7.3-6.3-15.4-12.5-24.1-18.4c-4-2.7-8.1-5.2-12.1-7.7
		C325.2,183.2,349.5,178.5,355.3,185.3z"/>
	<path class="st0" d="M288.2,155.7c7.2,0,14.9,11.6,19.7,29.6c-6.5,2.8-13.1,6.1-19.7,9.8c-6.3-3.5-13-6.9-19.7-9.8
		C273.3,167.2,280.9,155.7,288.2,155.7z"/>
	<path class="st2" d="M219.9,190.7c-0.3-2.4,0.1-4.2,1.2-5.5c1.6-1.9,4.9-2.9,9.6-2.9c10.8,0,28.8,5.3,50.4,16.9
		c-4.1,2.5-8.2,5-12.1,7.7c-8.8,6-16.9,12.2-24.1,18.4C229.1,210.8,220.9,198.2,219.9,190.7z"/>
	<path class="st0" d="M221,274.9c-1.1-1.3-1.5-3.1-1.2-5.5c1-7.5,9.2-20.1,25-34.6c3.7,3.2,7.6,6.4,11.7,9.5
		c0.6,9.6,1.9,18.4,3.6,26.3C236.7,280,224.4,278.8,221,274.9z"/>
	<path class="st2" d="M288.2,304.4c-9.6,0-20.8-20.3-24.1-54.6c1.6,1.1,3.2,2.2,4.8,3.3c12.5,8.4,26,16,38.9,21.6
		C303.1,292.9,295.4,304.4,288.2,304.4z"/>
	<path class="st1" d="M355.3,274.9c-7.2,8.4-42.8-0.8-82.4-27.5c-8.7-5.9-16.3-11.7-22.8-17.3c6.5-5.6,14.1-11.4,22.8-17.3
		c5.2-3.5,10.3-6.7,15.3-9.6c5.2,3,10.3,6.2,15.3,9.6c9.3,6.3,17.9,12.9,25.4,19.6C352.3,253.2,359.9,269.5,355.3,274.9z"/>
</g>
</svg>
